# xmcd
#
# Track frame offsets: 
#        150
#        18639
#        35167
#        53656
#
# Disc length: 934 seconds
#
# Revision: 2
# Processed by: cddbd v1.5.2PL0 Copyright (c) Steve Scherf et al.
# Submitted via: ExactAudioCopyFreeDBPlugin 1.0
#
DISCID=2f03a404
DTITLE=小倉唯 - Baby Sweet Berry Love
DYEAR=2013
DGENRE=JPop
TTITLE0=Baby Sweet Berry Love
TTITLE1=おねがいBe with you
TTITLE2=Baby Sweet Berry Love（off vocal ver）
TTITLE3=おねがいBe with you（off vocal ver）
EXTD=YEAR: 2013
EXTT0=
EXTT1=
EXTT2=
EXTT3=
PLAYORDER=
